<?xml version="1.0" standalone="no"?>
<!DOCTYPE svg PUBLIC "-//W3C//DTD SVG 20010904//EN"
 "http://www.w3.org/TR/2001/REC-SVG-20010904/DTD/svg10.dtd">
<svg version="1.0" xmlns="http://www.w3.org/2000/svg"
 width="127.000000pt" height="52.000000pt" viewBox="0 0 127.000000 52.000000"
 preserveAspectRatio="xMidYMid meet">
<metadata>
Created by potrace 1.15, written by Peter Selinger 2001-2017
</metadata>
<g transform="translate(0.000000,52.000000) scale(0.100000,-0.100000)"
fill="#000000" stroke="none">
<path d="M677 500 c-38 -30 -67 -119 -79 -244 -9 -99 -13 -114 -36 -134 -33
-31 -44 -14 -32 48 15 76 13 85 -23 98 -18 7 -40 12 -49 12 -26 0 -68 -40 -93
-90 -16 -32 -39 -57 -72 -78 -106 -67 -190 -61 -213 15 -22 73 31 218 101 277
52 44 119 32 119 -21 0 -58 -39 -96 -100 -97 -20 -1 -25 -6 -25 -26 0 -21 5
-26 33 -28 68 -7 142 70 142 148 0 55 -19 85 -64 100 -160 53 -352 -263 -252
-415 28 -43 64 -60 125 -58 64 1 100 13 154 50 35 24 38 25 55 9 23 -20 45
-20 83 0 28 14 32 14 48 0 22 -20 41 -20 66 -2 17 12 21 12 31 -2 15 -21 30
-9 59 46 26 52 82 121 69 87 -17 -46 -16 -106 1 -126 22 -24 36 -24 83 0 37
19 38 19 61 0 30 -24 77 -24 125 1 39 19 39 19 64 0 13 -11 38 -20 55 -20 36
0 107 32 133 61 15 17 16 21 3 34 -13 13 -19 12 -51 -11 -39 -28 -98 -37 -105
-16 -3 6 2 12 10 12 8 0 29 13 46 29 23 21 31 38 31 63 0 43 -15 58 -58 58
-46 0 -87 -42 -97 -98 -5 -29 -15 -48 -31 -58 -29 -20 -85 -23 -91 -6 -3 6 2
12 10 12 8 0 29 13 46 29 23 21 31 38 31 63 0 43 -15 58 -58 58 -46 0 -87 -42
-97 -100 -7 -43 -27 -69 -52 -70 -17 0 -16 44 2 103 26 88 -4 102 -71 33 l-42
-44 45 93 c47 101 64 184 43 210 -17 21 -53 19 -83 -5z"/>
</g>
</svg>
